<?xml version="1.0" encoding="UTF-8" standalone="no"?>
<!-- Created with Inkscape (http://www.inkscape.org/) -->

<svg
   width="103mm"
   height="48mm"
   viewBox="0 0 103 48"
   version="1.1"
   id="svg1"
   xml:space="preserve"
   inkscape:version="1.4.4 (dcaf3e7, 2026-05-05)"
   sodipodi:docname="Fibrus-white.svg"
   xmlns:inkscape="http://www.inkscape.org/namespaces/inkscape"
   xmlns:sodipodi="http://sodipodi.sourceforge.net/DTD/sodipodi-0.dtd"
   xmlns="http://www.w3.org/2000/svg"
   xmlns:svg="http://www.w3.org/2000/svg"><sodipodi:namedview
     id="namedview1"
     pagecolor="#ffffff"
     bordercolor="#000000"
     borderopacity="0.25"
     inkscape:showpageshadow="2"
     inkscape:pageopacity="0.0"
     inkscape:pagecheckerboard="0"
     inkscape:deskcolor="#d1d1d1"
     inkscape:document-units="mm"
     inkscape:zoom="0.71891835"
     inkscape:cx="397.81986"
     inkscape:cy="561.25984"
     inkscape:window-width="1920"
     inkscape:window-height="1009"
     inkscape:window-x="-8"
     inkscape:window-y="-8"
     inkscape:window-maximized="1"
     inkscape:current-layer="layer1" /><defs
     id="defs1" /><g
     inkscape:label="Layer 1"
     inkscape:groupmode="layer"
     id="layer1"><g
       id="g1"
       transform="translate(-35.330855,-52.628254)"><path
         style="display:inline;fill:#9698a7"
         d="m 71.212254,88.823236 c 0.329119,-0.06329 0.805369,-0.06088 1.058333,0.0053 0.252965,0.06622 -0.01631,0.118003 -0.598397,0.115066 -0.582083,-0.0029 -0.789054,-0.05712 -0.459936,-0.120406 z m 34.131256,0 c 0.32911,-0.06329 0.80536,-0.06088 1.05833,0.0053 0.25296,0.06622 -0.0163,0.118003 -0.5984,0.115066 -0.58208,-0.0029 -0.78905,-0.05712 -0.45993,-0.120406 z m 17.86132,0.0038 c 0.25743,-0.06708 0.61462,-0.06267 0.79375,0.0098 0.17913,0.07247 -0.0315,0.127362 -0.46805,0.12197 -0.43657,-0.0054 -0.58313,-0.06469 -0.3257,-0.131774 z m -10.25764,-2.727063 c 0.26339,-0.291042 0.53842,-0.529167 0.61118,-0.529167 0.0728,0 -0.0832,0.238125 -0.3466,0.529167 -0.26338,0.291042 -0.53842,0.529167 -0.61118,0.529167 -0.0728,0 0.0832,-0.238125 0.3466,-0.529167 z m 10.13685,-2.297407 c 0.191,-0.07643 0.4192,-0.06703 0.50712,0.02089 0.0879,0.08792 -0.0683,0.150453 -0.34727,0.138964 -0.30822,-0.0127 -0.37092,-0.07539 -0.15985,-0.159852 z M 82.93787,73.774775 c 0.0127,-0.308225 0.07539,-0.370919 0.159853,-0.159853 0.07643,0.190997 0.06703,0.4192 -0.02089,0.507119 -0.08792,0.08792 -0.150453,-0.06835 -0.138965,-0.347266 z M 70.155574,57.597779 c 0.475549,-0.05889 1.189924,-0.05767 1.5875,0.0027 0.397577,0.06037 0.0085,0.108551 -0.864634,0.107066 -0.873125,-0.0015 -1.198415,-0.05088 -0.722866,-0.109766 z"
         id="path6" /><path
         style="fill:#717388"
         d="m 56.263848,88.291339 c 0.402184,-0.06082 0.997496,-0.05919 1.322917,0.0036 0.325421,0.0628 -0.0036,0.11256 -0.731242,0.110574 -0.727604,-0.002 -0.993858,-0.05337 -0.591675,-0.114186 z m 29.10053,3.51e-4 c 0.400182,-0.06062 1.055026,-0.06062 1.455208,0 0.400183,0.06062 0.07276,0.110223 -0.727604,0.110223 -0.800364,0 -1.127786,-0.0496 -0.727604,-0.110223 z M 63.918562,81.469741 c 0.0054,-0.436563 0.06469,-0.583125 0.131773,-0.325694 0.06708,0.257431 0.06267,0.614618 -0.0098,0.79375 -0.07248,0.179131 -0.127361,-0.03149 -0.121969,-0.468056 z M 82.93787,72.981025 c 0.0127,-0.308225 0.07539,-0.370919 0.159853,-0.159853 0.07643,0.190997 0.06703,0.4192 -0.02089,0.507119 -0.08792,0.08792 -0.150453,-0.06835 -0.138965,-0.347266 z"
         id="path5" /><path
         style="fill:#4dc02c"
         d="m 58.99346,62.575535 c -0.781688,-0.863755 -0.02208,-4.210669 1.048917,-4.62165 0.763136,-0.292842 3.969022,-0.178686 4.300855,0.153146 0.720235,0.720236 0.158114,3.891407 -0.809988,4.569491 -0.888694,0.622466 -3.946628,0.554443 -4.539784,-0.100987 z"
         id="path4" /><path
         style="fill:#51546d"
         d="m 41.31599,94.374864 c 0.475549,-0.05889 1.189924,-0.05767 1.5875,0.0027 0.397576,0.06037 0.0085,0.108551 -0.864634,0.107066 -0.873125,-0.0015 -1.198415,-0.05088 -0.722866,-0.109766 z m 12.782296,-7.635505 c 0.0127,-0.308225 0.07539,-0.370919 0.159852,-0.159853 0.07643,0.190996 0.06703,0.4192 -0.02089,0.507118 -0.08792,0.08792 -0.150452,-0.06835 -0.138964,-0.347265 z m 11.851613,-0.0441 c -0.329107,-0.419644 -0.319749,-0.429003 0.0999,-0.0999 0.254662,0.199719 0.463021,0.408078 0.463021,0.463021 0,0.217761 -0.217272,0.0776 -0.562916,-0.363126 z m 8.500416,-3.605625 c 0,-0.05494 0.20836,-0.263301 0.463021,-0.46302 0.419644,-0.329108 0.429002,-0.319749 0.0999,0.09989 -0.345644,0.44073 -0.562916,0.580888 -0.562916,0.363126 z m -4.720724,-2.281355 c 0,-0.363802 0.06005,-0.51263 0.133453,-0.330729 0.0734,0.181901 0.0734,0.479557 0,0.661458 -0.0734,0.181901 -0.133453,0.03307 -0.133453,-0.330729 z m 7.418138,-7.011458 c 0.0054,-0.436563 0.06469,-0.583125 0.131773,-0.325694 0.06708,0.257431 0.06267,0.614618 -0.0098,0.79375 -0.07248,0.179131 -0.127362,-0.03149 -0.12197,-0.468056 z M 50.036601,70.298573 c 0.469697,-0.05845 1.303134,-0.05941 1.852083,-0.0021 0.548949,0.05728 0.164651,0.105099 -0.853995,0.106272 -1.018645,0.0012 -1.467785,-0.04569 -0.998088,-0.104138 z M 46.536773,59.906198 c 0.263389,-0.291042 0.53842,-0.529167 0.611181,-0.529167 0.07276,0 -0.08321,0.238125 -0.346598,0.529167 -0.263389,0.291042 -0.538421,0.529167 -0.611181,0.529167 -0.07276,0 0.08321,-0.238125 0.346598,-0.529167 z M 73.41287,59.222691 c 0.0127,-0.308225 0.07539,-0.370919 0.159852,-0.159852 0.07643,0.190996 0.06703,0.419199 -0.02089,0.507118 -0.08792,0.08792 -0.150452,-0.06835 -0.138964,-0.347266 z"
         id="path3" /><path
         style="fill:#23274d"
         d="m 42.435731,66.68202 c 0,-0.05684 0.408367,-0.151019 0.907482,-0.209288 0.499115,-0.05827 0.849276,-0.01176 0.778135,0.103345 -0.128036,0.207167 -1.685617,0.305063 -1.685617,0.105943 z m 17.401093,-0.08841 c 0.475549,-0.05889 1.189924,-0.05767 1.5875,0.0027 0.397576,0.06037 0.0085,0.108551 -0.864634,0.107066 -0.873125,-0.0015 -1.198415,-0.05088 -0.722866,-0.109766 z m 43.391666,0 c 0.47555,-0.05889 1.18993,-0.05767 1.5875,0.0027 0.39758,0.06037 0.008,0.108551 -0.86463,0.107066 -0.87313,-0.0015 -1.19842,-0.05088 -0.72287,-0.109766 z m 11.64167,0 c 0.47555,-0.05889 1.18992,-0.05767 1.5875,0.0027 0.39758,0.06037 0.008,0.108551 -0.86464,0.107066 -0.87312,-0.0015 -1.19841,-0.05088 -0.72286,-0.109766 z"
         id="path2" /><path
         style="fill:#ffffff"
         d="m 39.783424,93.897358 c -0.346357,-0.417335 -0.40166,-0.05267 2.64707,-17.454701 0.433405,-2.473854 0.85947,-4.825339 0.946812,-5.225521 0.140324,-0.642936 0.08139,-0.727604 -0.506453,-0.727604 -0.365891,0 -0.983872,-0.121137 -1.37329,-0.269194 -0.67167,-0.255368 -0.69846,-0.333502 -0.52163,-1.521354 0.244081,-1.639605 0.471495,-1.870927 1.932913,-1.966129 l 1.224704,-0.07978 0.410367,-2.116667 c 0.468254,-2.415253 1.144474,-3.658637 2.766042,-5.085999 1.503452,-1.323391 3.372852,-1.97215 5.682753,-1.97215 2.278764,0 2.902926,0.18781 3.197297,0.962066 0.275656,0.725029 -0.353081,3.110392 -0.950535,3.606235 -0.233125,0.193477 -0.991378,0.306238 -1.830885,0.272274 -0.788129,-0.03189 -1.684518,0.07666 -1.991976,0.241201 -0.614462,0.32885 -1.144348,1.4376 -1.418715,2.968561 l -0.177812,0.992188 1.797927,0.0041 c 2.471832,0.0056 2.608091,0.125137 2.307095,2.024459 l -0.244585,1.543365 -2.281583,0.07596 -2.281583,0.07596 -0.141569,0.982375 c -0.199521,1.384506 -3.040516,17.477644 -3.536408,20.032376 -0.555755,2.86314 -0.749142,3.042709 -3.276843,3.042709 -1.510958,0 -2.130757,-0.105425 -2.379113,-0.404675 z M 68.885963,88.339397 C 67.393077,87.87919 65.620314,86.388409 64.851941,84.947041 64.018355,83.383344 64.0697,80.210442 65.010968,75.11974 c 1.216876,-6.581286 1.430856,-7.768827 2.169197,-12.038542 0.8727,-5.046699 1.048262,-5.291667 3.792404,-5.291667 1.035099,0 1.917738,0.133325 2.101913,0.3175 0.444493,0.444494 0.397283,1.610763 -0.192777,4.762298 -0.280652,1.498976 -0.59286,3.25561 -0.693794,3.903632 l -0.183518,1.178221 0.627649,-0.448674 c 1.255858,-0.897749 2.503599,-1.29504 4.067232,-1.29504 3.785749,0 6.217708,2.629544 6.217708,6.722866 0,1.77201 -0.910097,7.154748 -1.510509,8.933857 -0.853322,2.528517 -2.574753,4.656357 -4.625248,5.717214 -2.213742,1.145315 -5.587953,1.469259 -7.895262,0.757992 z m 5.458,-5.010239 c 0.347285,-0.22755 0.913485,-0.977133 1.258221,-1.665739 0.735292,-1.46874 1.86965,-7.455996 1.642267,-8.668054 -0.464464,-2.475807 -3.369161,-2.713092 -5.519142,-0.450859 -0.651134,0.685131 -0.824061,1.258359 -1.431071,4.743801 -0.688126,3.951213 -0.688748,3.967963 -0.185411,4.996921 0.277766,0.567831 0.802686,1.186306 1.166488,1.374389 0.77908,0.402779 2.179799,0.251937 3.068648,-0.330459 z m 28.468637,4.930271 c -2.47169,-0.88123 -3.966861,-2.861687 -4.212617,-5.57991 -0.0837,-0.925734 0.08127,-2.655817 0.443326,-4.649362 0.317143,-1.74625 0.807053,-4.436128 1.088691,-5.977506 0.28164,-1.541378 0.51207,-3.043369 0.51207,-3.337756 0,-0.294388 0.24676,-0.848964 0.54837,-1.23239 0.50965,-0.647921 0.69579,-0.69714 2.63652,-0.69714 1.81814,0 2.12482,0.0685 2.37167,0.529759 0.2165,0.404519 0.031,1.970404 -0.78444,6.623583 -1.32138,7.539859 -1.34063,8.225104 -0.26144,9.304302 0.70735,0.707342 0.93873,0.78879 1.88161,0.662323 1.31498,-0.176375 2.44188,-1.185657 2.99126,-2.67903 0.21841,-0.593713 0.87018,-3.801128 1.44837,-7.12759 0.58156,-3.345839 1.23646,-6.330762 1.46577,-6.680729 0.37887,-0.578225 0.59319,-0.632618 2.49268,-0.632618 2.91262,0 2.90209,-0.02079 2.18619,4.314892 -1.74544,10.570932 -2.01661,11.583754 -3.70002,13.819793 -1.0922,1.450759 -3.00274,2.858402 -4.49838,3.314313 -1.84533,0.562505 -5.06793,0.574726 -6.60963,0.02507 z m 17.54293,0.212711 c -0.58209,-0.13929 -1.32472,-0.315187 -1.6503,-0.390882 -0.32558,-0.0757 -0.772,-0.412388 -0.99204,-0.748207 -0.35847,-0.547104 -0.35531,-0.746085 0.0305,-1.914028 0.67679,-2.049005 0.77194,-2.09886 3.32491,-1.742119 1.20855,0.16888 2.53657,0.306902 2.95114,0.306716 1.06286,-4.76e-4 2.43001,-0.709433 2.75855,-1.430489 0.47874,-1.050715 -0.14861,-1.771747 -2.72407,-3.13086 -1.30666,-0.689546 -2.69733,-1.607618 -3.09036,-2.040159 -1.32594,-1.459202 -1.57692,-4.218286 -0.59705,-6.563448 1.43213,-3.427573 5.44744,-5.272931 9.95245,-4.573955 2.28165,0.354011 3.13317,0.824733 3.13317,1.732026 0,0.935463 -0.78101,2.751945 -1.30344,3.031537 -0.24532,0.131296 -1.57046,0.173596 -2.94474,0.094 -2.42732,-0.140585 -2.51662,-0.12537 -3.12637,0.532663 -1.18936,1.283555 -0.46265,2.216039 3.43749,4.410846 2.30127,1.295047 3.14331,2.6494 3.14331,5.055767 0,3.260407 -2.16385,6.202143 -5.24361,7.128644 -1.33051,0.400263 -5.76309,0.552178 -7.05951,0.241947 z M 54.669478,87.909113 c -0.47262,-0.47262 -0.41022,-1.528075 0.335143,-5.668703 0.617327,-3.429366 1.027382,-5.726647 2.138914,-11.982992 0.573075,-3.225597 0.813263,-3.472053 3.383758,-3.472053 3.003097,0 2.94292,-0.315694 1.487829,7.805209 -0.417187,2.328333 -1.071732,6.019271 -1.454545,8.202083 -0.893414,5.094285 -1.009389,5.267047 -3.603403,5.36781 -1.297208,0.05039 -2.070967,-0.03462 -2.287696,-0.251354 z m 29.358754,-0.01 c -0.432672,-0.432672 -0.397534,-1.183799 0.214126,-4.577292 0.288523,-1.600729 0.765429,-4.30599 1.059791,-6.01169 0.71277,-4.130187 1.325947,-6.001861 2.48237,-7.577224 1.719579,-2.342535 4.24861,-3.531316 7.56788,-3.557311 2.98595,-0.02339 3.688054,0.537946 3.163364,2.5291 -0.553273,2.099627 -0.821533,2.313999 -2.895673,2.313999 -1.656378,0 -1.924028,0.07661 -2.725135,0.779988 -1.235796,1.085044 -1.241953,1.10903 -3.124883,12.17443 -0.670051,3.937679 -0.9251,4.2435 -3.539002,4.2435 -1.113596,0 -2.015303,-0.129965 -2.202838,-0.3175 z"
         id="path1" /></g></g></svg>
