<?xml version="1.0" encoding="UTF-8" standalone="no"?>
<!-- Created with Inkscape (http://www.inkscape.org/) -->

<svg
   width="210mm"
   height="133mm"
   viewBox="0 0 210 133"
   version="1.1"
   id="svg1"
   xml:space="preserve"
   inkscape:version="1.4.4 (dcaf3e7, 2026-05-05)"
   sodipodi:docname="ogi-logo.svg"
   xmlns:inkscape="http://www.inkscape.org/namespaces/inkscape"
   xmlns:sodipodi="http://sodipodi.sourceforge.net/DTD/sodipodi-0.dtd"
   xmlns="http://www.w3.org/2000/svg"
   xmlns:svg="http://www.w3.org/2000/svg"><sodipodi:namedview
     id="namedview1"
     pagecolor="#ffffff"
     bordercolor="#000000"
     borderopacity="0.25"
     inkscape:showpageshadow="2"
     inkscape:pageopacity="0.0"
     inkscape:pagecheckerboard="0"
     inkscape:deskcolor="#d1d1d1"
     inkscape:document-units="mm"
     inkscape:zoom="0.71891835"
     inkscape:cx="248.98516"
     inkscape:cy="564.0418"
     inkscape:window-width="1920"
     inkscape:window-height="1009"
     inkscape:window-x="-8"
     inkscape:window-y="-8"
     inkscape:window-maximized="1"
     inkscape:current-layer="layer1" /><defs
     id="defs1" /><g
     inkscape:label="Layer 1"
     inkscape:groupmode="layer"
     id="layer1"><g
       id="g1"
       transform="translate(-4.4163569,-53.364314)"><path
         style="fill:#f83448"
         d="m 33.133599,176.36689 c -27.0034402,-4.98439 -31.4454902,-37.7021 -7.30413,-53.79822 23.70195,-15.80315 53.758478,-13.17432 60.892908,5.32588 8.35113,21.65519 -8.22817,42.58109 -38.242938,48.26912 -3.08908,0.5854 -12.59345,0.71127 -15.34584,0.20322 z m 16.82993,-21.55928 c 6.11914,-1.16047 9.94323,-6.70682 8.97995,-13.02424 -0.91671,-6.01204 -5.3868,-8.70287 -11.36602,-6.84193 -11.80465,3.67402 -9.58713,22.13684 2.38607,19.86617 z m 60.031521,21.82602 c -0.21828,-0.0432 -1.46844,-0.22264 -2.77812,-0.39882 -2.77359,-0.3731 -6.22277,-1.31712 -8.441023,-2.31025 l -1.56186,-0.69925 0.17215,-5.70038 c 0.0947,-3.13521 0.17243,-7.1604 0.17279,-8.94486 l 6.5e-4,-3.24447 1.78594,0.89746 c 18.881903,9.48837 41.981133,-0.79072 43.097923,-19.17848 0.19571,-3.22229 0.0815,-3.51464 -0.5819,-1.48993 -5.6023,17.09757 -32.35344,23.39058 -43.040453,10.12496 -6.36872,-7.9054 -7.55936,-21.97464 -2.70971,-32.01923 8.883173,-18.398769 36.480833,-23.368589 44.448153,-8.00428 1.18821,2.29138 1.24877,2.03434 1.1472,-4.86991 l -0.094,-6.391899 14.68437,-3.38881 c 8.07641,-1.86385 14.77368,-3.39281 14.88282,-3.39769 0.30641,-0.0137 0.23964,45.182289 -0.0717,48.542169 -1.97107,21.27011 -14.45586,33.24887 -40.78297,39.12997 -5.54194,1.23799 -17.02675,1.99706 -20.33022,1.3437 z m 24.6588,-44.06325 c 10.78178,-3.63211 9.68021,-21.10664 -1.25987,-19.9858 -6.55675,0.67176 -10.29041,4.75993 -10.29478,11.27226 -0.005,7.29968 4.86039,10.96868 11.55465,8.71354 z M 177.4638,115.57385 V 87.182531 l 2.31511,0.48993 c 6.77635,1.43402 17.46491,-0.41883 24.90887,-4.31793 1.36699,-0.71603 2.5284,-1.30186 2.58091,-1.30186 0.0525,0 0.0652,12.4026 0.0281,27.561339 l -0.0674,27.56134 -14.68438,3.38472 c -8.07641,1.8616 -14.77367,3.38931 -14.88281,3.39491 -0.10914,0.006 -0.19844,-12.7659 -0.19844,-28.38113 z m 6.56811,-34.458669 c -11.16374,-2.70774 -9.71169,-14.46364 2.41838,-19.57945 13.7811,-5.81214 25.72993,0.20703 20.73334,10.44432 -3.04171,6.23202 -15.25401,11.05071 -23.15172,9.13513 z"
         id="path1" /></g></g></svg>
